<svg width="64" height="64" viewBox="0 0 64 64" fill="none" xmlns="http://www.w3.org/2000/svg">
  <defs>
    <linearGradient id="bg" x1="8" y1="8" x2="56" y2="56" gradientUnits="userSpaceOnUse">
      <stop stop-color="#0F766E" />
      <stop offset="0.55" stop-color="#2563EB" />
      <stop offset="1" stop-color="#4F46E5" />
    </linearGradient>
    <linearGradient id="shine" x1="16" y1="12" x2="48" y2="50" gradientUnits="userSpaceOnUse">
      <stop stop-color="#FFFFFF" stop-opacity="0.28" />
      <stop offset="1" stop-color="#FFFFFF" stop-opacity="0" />
    </linearGradient>
  </defs>
  <rect x="4" y="4" width="56" height="56" rx="16" fill="url(#bg)" />
  <rect x="4" y="4" width="56" height="56" rx="16" fill="url(#shine)" />
  <path d="M18 24h28c1.105 0 2 .895 2 2v2H16v-2c0-1.105.895-2 2-2Z" fill="#FFFFFF" fill-opacity="0.92"/>
  <path d="M19 29h26v13c0 1.657-1.343 3-3 3H22c-1.657 0-3-1.343-3-3V29Z" fill="#FFFFFF" fill-opacity="0.95"/>
  <path d="M29 20h6v7h7v6h-7v7h-6v-7h-7v-6h7v-7Z" fill="#FFFFFF"/>
  <circle cx="21.5" cy="21.5" r="2.5" fill="#BAE6FD" fill-opacity="0.9"/>
</svg>